<?xml version="1.0" encoding="UTF-8"?>
<svg version="1.1" xmlns="http://www.w3.org/2000/svg" width="300" height="254">
<path d="M0 0 C6.58281983 4.70677168 10.94577133 10.91934525 13.50390625 18.59375 C14.02202481 27.46154842 14.05518798 35.30742597 10.50390625 43.59375 C8.52390625 43.59375 6.54390625 43.59375 4.50390625 43.59375 C4.50390625 44.25375 4.50390625 44.91375 4.50390625 45.59375 C4.50390625 46.91375 4.50390625 48.23375 4.50390625 49.59375 C2.45703125 51.26171875 2.45703125 51.26171875 -0.24609375 52.78125 C-1.1278125 53.29042969 -2.00953125 53.79960937 -2.91796875 54.32421875 C-10.37676594 57.9971113 -20.05387234 57.97430275 -27.90234375 55.53515625 C-35.78132655 51.86426654 -41.71022731 46.88728584 -45.37109375 38.90625 C-48.43413302 29.88730102 -48.36603917 22.13370079 -44.8203125 13.23828125 C-40.96786977 5.54475992 -34.54346538 -0.19351441 -26.45703125 -3.15234375 C-17.39622073 -5.68867102 -8.20284653 -4.62132199 0 0 Z M-23.49609375 -0.40625 C-19.49609375 0.59375 -19.49609375 0.59375 -19.49609375 0.59375 Z M-22.49609375 3.59375 C-21.71575055 10.47370036 -21.71575055 10.47370036 -18.12109375 16.15625 C-15.8396724 17.40559979 -14.05522231 18.21461984 -11.49609375 18.59375 C-11.03934192 12.88435212 -11.87503819 10.04247541 -15.49609375 5.59375 C-18.44986873 3.22394987 -18.44986873 3.22394987 -22.49609375 3.59375 Z M8.50390625 17.59375 C9.50390625 19.59375 9.50390625 19.59375 9.50390625 19.59375 Z M-43.49609375 19.59375 C-42.49609375 22.59375 -42.49609375 22.59375 -42.49609375 22.59375 Z M-22.49609375 20.59375 C-22.50240693 24.42855655 -22.44242559 28.25966369 -22.37109375 32.09375 C-22.37367187 33.17140625 -22.37625 34.2490625 -22.37890625 35.359375 C-22.19620671 42.85005622 -20.77308888 47.19814812 -15.49609375 52.59375 C-17.47609375 52.59375 -19.45609375 52.59375 -21.49609375 52.59375 C-21.49609375 52.92375 -21.49609375 53.25375 -21.49609375 53.59375 C-18.19609375 53.59375 -14.89609375 53.59375 -11.49609375 53.59375 C-11.37947114 49.55232785 -11.30870025 45.51134135 -11.24609375 41.46875 C-11.21257813 40.32664062 -11.1790625 39.18453125 -11.14453125 38.0078125 C-11.03650086 29.48732796 -11.03650086 29.48732796 -15.49609375 22.59375 C-18.44986873 20.22394987 -18.44986873 20.22394987 -22.49609375 20.59375 Z M9.50390625 21.59375 C9.50390625 24.89375 9.50390625 28.19375 9.50390625 31.59375 C9.83390625 31.59375 10.16390625 31.59375 10.50390625 31.59375 C10.50390625 28.29375 10.50390625 24.99375 10.50390625 21.59375 C10.17390625 21.59375 9.84390625 21.59375 9.50390625 21.59375 Z M-43.49609375 30.59375 C-42.49609375 32.59375 -42.49609375 32.59375 -42.49609375 32.59375 Z " fill="#16749A" transform="translate(66.49609375,97.40625)"/>
<path d="M0 0 C-0.99 1.485 -0.99 1.485 -2 3 C-0.35 2.67 1.3 2.34 3 2 C3 2.99 3 3.98 3 5 C1.35 5.33 -0.3 5.66 -2 6 C-1.855625 6.70125 -1.71125 7.4025 -1.5625 8.125 C-0.51714568 13.46792208 0.11840554 18.48040031 0.140625 23.9375 C0.16962891 25.89816406 0.16962891 25.89816406 0.19921875 27.8984375 C0.22819684 29.95244369 0.25000127 32.00534611 0.25048828 34.05957031 C-0.12132417 43.03172728 -0.12132417 43.03172728 3.546875 50.8125 C4.35640625 51.534375 5.1659375 52.25625 6 53 C6 53.66 6 54.32 6 55 C4.02 55.495 4.02 55.495 2 56 C2 56.66 2 57.32 2 58 C-5.51694994 58.83521666 -10.04259177 56.53042435 -16 52 C-22.85830774 45.7024344 -25.82176099 38.10089337 -26.3125 28.875 C-26.16970476 20.29300611 -22.81329119 12.88970433 -16.9375 6.72265625 C-12.15443673 2.46997298 -6.55471549 -2.03422205 0 0 Z M-22 22 C-21 25 -21 25 -21 25 Z M-22 33 C-21 35 -21 35 -21 35 Z " fill="#1DA5CF" transform="translate(45,95)"/>
<path d="M0 0 C1.65 0 3.3 0 5 0 C5 1.32 5 2.64 5 4 C6.32 4 7.64 4 9 4 C9 5.32 9 6.64 9 8 C7.68 8 6.36 8 5 8 C5 10.31 5 12.62 5 15 C6.32 15 7.64 15 9 15 C9 16.32 9 17.64 9 19 C2.84765625 19.09765625 2.84765625 19.09765625 1 19 C0 18 0 18 -0.09765625 15.71484375 C-0.08605469 14.79832031 -0.07445312 13.88179687 -0.0625 12.9375 C-0.05347656 12.01839844 -0.04445312 11.09929687 -0.03515625 10.15234375 C-0.02355469 9.44207031 -0.01195312 8.73179688 0 8 C-0.99 8 -1.98 8 -3 8 C-3 11.63 -3 15.26 -3 19 C-13.75 19.125 -13.75 19.125 -16 18 C-16.125 11.25 -16.125 11.25 -15 9 C-14.9603287 7.33380554 -14.95615553 5.66608987 -15 4 C-10 4 -5 4 0 4 C0 2.68 0 1.36 0 0 Z M-13 8 C-13 8.33 -13 8.66 -13 9 C-11.35 9 -9.7 9 -8 9 C-8 8.67 -8 8.34 -8 8 C-9.65 8 -11.3 8 -13 8 Z M-11 13 C-11 13.66 -11 14.32 -11 15 C-10.01 14.67 -9.02 14.34 -8 14 C-8.99 13.67 -9.98 13.34 -11 13 Z " fill="#3A3A3A" transform="translate(173,104)"/>
<path d="M0 0 C1.32 0.33 2.64 0.66 4 1 C4 2.98 4 4.96 4 7 C4.928125 6.9175 5.85625 6.835 6.8125 6.75 C10 7 10 7 11.875 8.5625 C13.42190908 11.91413635 13.39126176 14.34822358 13 18 C12.01 19.32 11.02 20.64 10 22 C6.7 22 3.4 22 0 22 C0 14.74 0 7.48 0 0 Z M6 10 C5.01 10.495 5.01 10.495 4 11 C4 13.31 4 15.62 4 18 C5.32 18 6.64 18 8 18 C9.26472065 16.94570314 9.26472065 16.94570314 9.25 14.5625 C9.12625 13.2940625 9.12625 13.2940625 9 12 C8.01 11.34 7.02 10.68 6 10 Z " fill="#5E5E5E" transform="translate(258,101)"/>
<path d="M0 0 C10.75 -0.125 10.75 -0.125 13 1 C14.04976964 4.14930893 14.10131595 6.38814456 14.0625 9.6875 C14.05347656 10.68136719 14.04445312 11.67523438 14.03515625 12.69921875 C14.02355469 13.45847656 14.01195312 14.21773437 14 15 C12.02 15 10.04 15 8 15 C8 11.37 8 7.74 8 4 C7.01 4.495 7.01 4.495 6 5 C5.53248212 7.35599235 5.53248212 7.35599235 5.375 10.0625 C5.30023438 10.98160156 5.22546875 11.90070313 5.1484375 12.84765625 C5.09945312 13.55792969 5.05046875 14.26820312 5 15 C3.35 15 1.7 15 0 15 C0 10.05 0 5.1 0 0 Z " fill="#3A3A3A" transform="translate(206,108)"/>
<path d="M0 0 C10.75 -0.125 10.75 -0.125 13 1 C14.04976964 4.14930893 14.10131595 6.38814456 14.0625 9.6875 C14.05347656 10.68136719 14.04445313 11.67523438 14.03515625 12.69921875 C14.02355469 13.45847656 14.01195313 14.21773437 14 15 C12.33388095 15.042721 10.66617115 15.04063832 9 15 C8 14 8 14 7.90234375 11.71484375 C7.91394531 10.79832031 7.92554687 9.88179687 7.9375 8.9375 C7.94652344 8.01839844 7.95554687 7.09929687 7.96484375 6.15234375 C7.97644531 5.44207031 7.98804687 4.73179688 8 4 C7.01 4.495 7.01 4.495 6 5 C5.53248212 7.35599235 5.53248212 7.35599235 5.375 10.0625 C5.30023438 10.98160156 5.22546875 11.90070313 5.1484375 12.84765625 C5.09945312 13.55792969 5.05046875 14.26820312 5 15 C3.35 15 1.7 15 0 15 C0 10.05 0 5.1 0 0 Z " fill="#3A3A3A" transform="translate(112,108)"/>
<path d="M0 0 C1.94140625 0.34375 1.94140625 0.34375 4.44140625 1.90625 C6.52533443 5.29263329 6.49942722 7.43760318 5.94140625 11.34375 C4.14312081 13.78428024 2.75184493 14.97774544 0.00390625 16.21875 C-2.79530336 16.38839907 -4.57040727 15.58784324 -7.05859375 14.34375 C-9.47346318 11.92888057 -9.35478625 11.21667211 -9.37109375 7.90625 C-9.38785156 7.12378906 -9.40460938 6.34132813 -9.421875 5.53515625 C-8.54155421 0.22483406 -4.91646518 -0.21730233 0 0 Z M-3.05859375 4.34375 C-4.35492996 5.41020115 -4.35492996 5.41020115 -4.12109375 7.90625 C-4.10046875 8.710625 -4.07984375 9.515 -4.05859375 10.34375 C-2.73859375 10.67375 -1.41859375 11.00375 -0.05859375 11.34375 C0.94357689 7.76047247 0.94357689 7.76047247 -0.05859375 4.34375 C-1.04859375 4.34375 -2.03859375 4.34375 -3.05859375 4.34375 Z " fill="#3A3A3A" transform="translate(136.05859375,107.65625)"/>
<path d="M0 0 C2.20066025 1.59186082 2.90197996 2.46953859 3.3984375 5.15625 C3.39070312 5.9296875 3.38296875 6.703125 3.375 7.5 C3.38273438 8.2734375 3.39046875 9.046875 3.3984375 9.84375 C2.90197996 12.53046141 2.20066025 13.40813918 0 15 C-6.79245283 15.75471698 -6.79245283 15.75471698 -10.5 13.4375 C-12.58392818 10.05111671 -12.55802097 7.90614682 -12 4 C-8.93537785 -0.980011 -5.34000819 -0.59333424 0 0 Z M-6 4 C-7.00217064 7.58327753 -7.00217064 7.58327753 -6 11 C-4.68 10.67 -3.36 10.34 -2 10 C-2 8.35 -2 6.7 -2 5 C-3.32 4.67 -4.64 4.34 -6 4 Z " fill="#3A3A3A" transform="translate(201,108)"/>
<path d="M0 0 C9.1796875 -0.29296875 9.1796875 -0.29296875 12 0 C14.35119399 3.52679099 14.21443452 5.02879485 14.125 9.1875 C14.10695313 10.27417969 14.08890625 11.36085938 14.0703125 12.48046875 C14.03550781 13.72763672 14.03550781 13.72763672 14 15 C12.35 15 10.7 15 9 15 C8.67 11.7 8.34 8.4 8 5 C7.34 5 6.68 5 6 5 C5.67 8.3 5.34 11.6 5 15 C3.35 15 1.7 15 0 15 C0 10.05 0 5.1 0 0 Z " fill="#3A3A39" transform="translate(96,108)"/>
<path d="M0 0 C1.32 0.33 2.64 0.66 4 1 C4 2.98 4 4.96 4 7 C4.94875 6.95875 5.8975 6.9175 6.875 6.875 C10 7 10 7 12 9 C12.1953125 12.0390625 12.1953125 12.0390625 12.125 15.625 C12.10695312 16.81351563 12.08890625 18.00203125 12.0703125 19.2265625 C12.04710937 20.14179687 12.02390625 21.05703125 12 22 C10.68 22 9.36 22 8 22 C7.67 18.37 7.34 14.74 7 11 C6.01 11 5.02 11 4 11 C4 14.63 4 18.26 4 22 C2.68 22 1.36 22 0 22 C0 14.74 0 7.48 0 0 Z " fill="#5E5E5E" transform="translate(228,101)"/>
<path d="M0 0 C1.65 0 3.3 0 5 0 C5.66 1.65 6.32 3.3 7 5 C7.391875 4.175 7.78375 3.35 8.1875 2.5 C8.785625 1.675 9.38375 0.85 10 0 C12.6875 -0.3125 12.6875 -0.3125 15 0 C14.37321829 3.66172475 13.35548154 6.8818995 11.9375 10.3125 C11.57527344 11.19550781 11.21304688 12.07851562 10.83984375 12.98828125 C10.56269531 13.65214844 10.28554687 14.31601563 10 15 C8.35 15 6.7 15 5 15 C4.15733289 13.25447527 3.32619962 11.5033792 2.5 9.75 C2.0359375 8.77546875 1.571875 7.8009375 1.09375 6.796875 C0 4 0 4 0 0 Z " fill="#3A3A3A" transform="translate(142,108)"/>
<path d="M0 0 C1.32 0.33 2.64 0.66 4 1 C4.33 4.3 4.66 7.6 5 11 C5.66 11 6.32 11 7 11 C7.33 7.37 7.66 3.74 8 0 C9.32 0 10.64 0 12 0 C12.05386629 2.12472576 12.09273071 4.24983652 12.125 6.375 C12.14820313 7.55835937 12.17140625 8.74171875 12.1953125 9.9609375 C12 13 12 13 10 15 C8.125 15.265625 8.125 15.265625 6 15.25 C5.29875 15.25515625 4.5975 15.2603125 3.875 15.265625 C2 15 2 15 0 13 C-0.1953125 9.9609375 -0.1953125 9.9609375 -0.125 6.375 C-0.10695312 5.18648438 -0.08890625 3.99796875 -0.0703125 2.7734375 C-0.04710937 1.85820313 -0.02390625 0.94296875 0 0 Z " fill="#5F5F5F" transform="translate(243,108)"/>
<path d="M0 0 C0.66 0.33 1.32 0.66 2 1 C2.4921875 2.9609375 2.4921875 2.9609375 2.875 5.375 C3.58805501 9.04468215 3.58805501 9.04468215 5.875 11.9375 C6.57625 12.288125 7.2775 12.63875 8 13 C8.7425 13.391875 9.485 13.78375 10.25 14.1875 C10.8275 14.455625 11.405 14.72375 12 15 C10.68 16.65 9.36 18.3 8 20 C5.69 19.01 3.38 18.02 1 17 C1.04125 15.824375 1.0825 14.64875 1.125 13.4375 C1.14092241 10.4493945 0.83153841 7.97512245 -0.0625 5.125 C-1 2 -1 2 0 0 Z " fill="#2395B3" transform="translate(43,101)"/>
<path d="M0 0 C1.65 0 3.3 0 5 0 C5 4.95 5 9.9 5 15 C3.35 15 1.7 15 0 15 C0 10.05 0 5.1 0 0 Z " fill="#3A3A3A" transform="translate(183,108)"/>
<path d="M0 0 C1.65 0 3.3 0 5 0 C5 4.95 5 9.9 5 15 C3.35 15 1.7 15 0 15 C0 10.05 0 5.1 0 0 Z " fill="#3A3A3A" transform="translate(89,108)"/>
<path d="M0 0 C1.99954746 -0.04254356 4.00041636 -0.04080783 6 0 C7 1 7 1 7.1328125 2.8125 C7.13023437 3.534375 7.12765625 4.25625 7.125 5 C7.12757813 5.721875 7.13015625 6.44375 7.1328125 7.1875 C7 9 7 9 6 10 C4.00041636 10.04080783 1.99954746 10.04254356 0 10 C0 6.7 0 3.4 0 0 Z M2 2 C2 2.66 2 3.32 2 4 C2.66 4 3.32 4 4 4 C4 3.34 4 2.68 4 2 C3.34 2 2.68 2 2 2 Z M2 6 C2 6.66 2 7.32 2 8 C2.99 8 3.98 8 5 8 C5 7.34 5 6.68 5 6 C4.01 6 3.02 6 2 6 Z " fill="#393939" transform="translate(173,136)"/>
<path d="M0 0 C1.98 0 3.96 0 6 0 C7.80411967 2.75924185 8.0127245 3.88972103 7.625 7.25 C7.41875 8.1575 7.2125 9.065 7 10 C6.34 10 5.68 10 5 10 C5 8.68 5 7.36 5 6 C4.01 6.495 4.01 6.495 3 7 C3 7.99 3 8.98 3 10 C2.01 10 1.02 10 0 10 C0 6.7 0 3.4 0 0 Z M3 2 C2.67 2.66 2.34 3.32 2 4 C2.99 3.67 3.98 3.34 5 3 C4.34 2.67 3.68 2.34 3 2 Z " fill="#393939" transform="translate(136,136)"/>
<path d="M0 0 C1.99954746 -0.04254356 4.00041636 -0.04080783 6 0 C7 1 7 1 7.09765625 3.06640625 C7.08605469 3.89011719 7.07445312 4.71382812 7.0625 5.5625 C7.05347656 6.38878906 7.04445312 7.21507812 7.03515625 8.06640625 C7.01775391 9.02353516 7.01775391 9.02353516 7 10 C6.01 9.67 5.02 9.34 4 9 C4 8.01 4 7.02 4 6 C3.34 6 2.68 6 2 6 C2 7.32 2 8.64 2 10 C1.34 10 0.68 10 0 10 C0 6.7 0 3.4 0 0 Z M2 2 C2 2.66 2 3.32 2 4 C2.99 3.67 3.98 3.34 5 3 C4.01 2.67 3.02 2.34 2 2 Z " fill="#393939" transform="translate(217,136)"/>
<path d="M0 0 C2.375 -0.125 2.375 -0.125 5 0 C7 2 7 2 7.125 5.125 C7.08375 6.07375 7.0425 7.0225 7 8 C4.69 8 2.38 8 0 8 C0 5.36 0 2.72 0 0 Z " fill="#393939" transform="translate(121,138)"/>
<path d="M0 0 C0.66 0 1.32 0 2 0 C2 3.3 2 6.6 2 10 C0.02 10 -1.96 10 -4 10 C-4.33 8.02 -4.66 6.04 -5 4 C-3.35 3.34 -1.7 2.68 0 2 C0 1.34 0 0.68 0 0 Z M-2 5 C-2 5.99 -2 6.98 -2 8 C-1.34 8 -0.68 8 0 8 C0 7.01 0 6.02 0 5 C-0.66 5 -1.32 5 -2 5 Z " fill="#393939" transform="translate(206,136)"/>
<path d="M0 0 C3.875 0.875 3.875 0.875 5 2 C5.04080783 3.99958364 5.04254356 6.00045254 5 8 C3.02 8 1.04 8 -1 8 C-1.625 5.6875 -1.625 5.6875 -2 3 C-1.34 2.01 -0.68 1.02 0 0 Z " fill="#3A3A3A" transform="translate(156,138)"/>
<path d="M0 0 C3.53571429 0.53571429 3.53571429 0.53571429 5 2 C5.125 4.5 5.125 4.5 5 7 C4 8 4 8 1.5 8.125 C-1 8 -1 8 -2 7 C-2.1875 4.5625 -2.1875 4.5625 -2 2 C-1.34 1.34 -0.68 0.68 0 0 Z " fill="#393939" transform="translate(228,138)"/>
<path d="M0 0 C3.53571429 0.53571429 3.53571429 0.53571429 5 2 C5.125 4.5 5.125 4.5 5 7 C4 8 4 8 1.5 8.125 C-1 8 -1 8 -2 7 C-2.1875 4.5625 -2.1875 4.5625 -2 2 C-1.34 1.34 -0.68 0.68 0 0 Z " fill="#393939" transform="translate(99,138)"/>
<path d="M0 0 C0 2.31 0 4.62 0 7 C-1.98 7 -3.96 7 -6 7 C-6 4.69 -6 2.38 -6 0 C-3.50907189 -1.24546405 -2.58919267 -0.7767578 0 0 Z " fill="#393939" transform="translate(241,139)"/>
<path d="M0 0 C0 2.31 0 4.62 0 7 C-1.98 7 -3.96 7 -6 7 C-6 4.69 -6 2.38 -6 0 C-3.50907189 -1.24546405 -2.58919267 -0.7767578 0 0 Z " fill="#393939" transform="translate(112,139)"/>
<path d="M0 0 C0.639375 0.2475 1.27875 0.495 1.9375 0.75 C2.98199911 3.88349732 2.87173645 4.73968256 1.9375 7.75 C0.27138095 7.792721 -1.39632885 7.79063832 -3.0625 7.75 C-4.0625 6.75 -4.0625 6.75 -4.125 3.6875 C-4.104375 2.718125 -4.08375 1.74875 -4.0625 0.75 C-2.0625 -0.25 -2.0625 -0.25 0 0 Z " fill="#3A3A3A" transform="translate(150.0625,138.25)"/>
<path d="M0 0 C0.66 0 1.32 0 2 0 C2.33 1.65 2.66 3.3 3 5 C3.33 3.35 3.66 1.7 4 0 C4.66 0 5.32 0 6 0 C6 2.64 6 5.28 6 8 C4.02 8 2.04 8 0 8 C0 5.36 0 2.72 0 0 Z " fill="#3A3A3A" transform="translate(183,138)"/>
<path d="M0 0 C3.465 1.485 3.465 1.485 7 3 C5.68 4.65 4.36 6.3 3 8 C1.68 7.01 0.36 6.02 -1 5 C-0.67 3.35 -0.34 1.7 0 0 Z " fill="#1A86A9" transform="translate(48,113)"/>
<path d="M0 0 C7.42857143 -0.28571429 7.42857143 -0.28571429 11 2 C10 3 10 3 6.62109375 3.09765625 C5.22652923 3.09098369 3.83198257 3.07902532 2.4375 3.0625 C1.72658203 3.05798828 1.01566406 3.05347656 0.28320312 3.04882812 C-1.47790013 3.03700864 -3.23896036 3.01907263 -5 3 C-5 2.67 -5 2.34 -5 2 C-3.35 2 -1.7 2 0 2 C0 1.34 0 0.68 0 0 Z " fill="#1C86AB" transform="translate(47,151)"/>
<path d="M0 0 C0.99 0 1.98 0 3 0 C3 3.3 3 6.6 3 10 C2.01 10 1.02 10 0 10 C0 6.7 0 3.4 0 0 Z " fill="#393939" transform="translate(163,136)"/>
<path d="M0 0 C0.66 0 1.32 0 2 0 C2 2.64 2 5.28 2 8 C3.65 8 5.3 8 7 8 C7 8.66 7 9.32 7 10 C4.69 10 2.38 10 0 10 C0 6.7 0 3.4 0 0 Z " fill="#3A3A3B" transform="translate(89,136)"/>
<path d="M0 0 C1.65 0 3.3 0 5 0 C5 1.98 5 3.96 5 6 C3.35 6 1.7 6 0 6 C0 4.02 0 2.04 0 0 Z " fill="#3A3A3A" transform="translate(183,101)"/>
<path d="M0 0 C1.65 0 3.3 0 5 0 C5 1.98 5 3.96 5 6 C3.35 6 1.7 6 0 6 C0 4.02 0 2.04 0 0 Z " fill="#3A3A3C" transform="translate(89,101)"/>
<path d="M0 0 C1.32 0.33 2.64 0.66 4 1 C3.67 2.32 3.34 3.64 3 5 C1.35 5 -0.3 5 -2 5 C-1.34 3.35 -0.68 1.7 0 0 Z " fill="#176883" transform="translate(74,136)"/>
<path d="M0 0 C1.32 0 2.64 0 4 0 C4 0.99 4 1.98 4 3 C3.34 3 2.68 3 2 3 C2 4.65 2 6.3 2 8 C1.34 8 0.68 8 0 8 C0 5.36 0 2.72 0 0 Z " fill="#393939" transform="translate(115,138)"/>
<path d="M0 0 C1.7074998 1.28062485 3.37373596 2.61767557 5 4 C5 4.66 5 5.32 5 6 C2.625 5.6875 2.625 5.6875 0 5 C-0.66 4.01 -1.32 3.02 -2 2 C-1.34 2 -0.68 2 0 2 C0 1.34 0 0.68 0 0 Z " fill="#1B6C91" transform="translate(69,100)"/>
<path d="M0 0 C0.66 0 1.32 0 2 0 C2 3.3 2 6.6 2 10 C1.34 10 0.68 10 0 10 C0 6.7 0 3.4 0 0 Z " fill="#393939" transform="translate(244,136)"/>
<path d="M0 0 C0.66 0 1.32 0 2 0 C2 3.3 2 6.6 2 10 C1.34 10 0.68 10 0 10 C0 6.7 0 3.4 0 0 Z " fill="#393939" transform="translate(197,136)"/>
<path d="M0 0 C0.66 0 1.32 0 2 0 C2 3.3 2 6.6 2 10 C1.34 10 0.68 10 0 10 C0 6.7 0 3.4 0 0 Z " fill="#393939" transform="translate(192,136)"/>
<path d="M0 0 C1.1577506 3.47325181 1.06866652 6.36067448 1 10 C0.01 9.67 -0.98 9.34 -2 9 C-1.125 2.25 -1.125 2.25 0 0 Z " fill="#2CB3E2" transform="translate(22,110)"/>
<path d="M0 0 C0.66 0 1.32 0 2 0 C2 0.99 2 1.98 2 3 C1.34 3 0.68 3 0 3 C0 2.01 0 1.02 0 0 Z " fill="#3A3A3A" transform="translate(168,143)"/>
</svg>
